<svg xmlns="http://www.w3.org/2000/svg" xmlns:xlink="http://www.w3.org/1999/xlink" width="1280" zoomAndPan="magnify" viewBox="0 0 960 599.999999" height="800" preserveAspectRatio="xMidYMid meet" version="1.0"><defs><clipPath id="9369915e21"><path d="M 0 0 L 959.726562 0 L 959.726562 349.496094 L 0 349.496094 Z M 0 0 " clip-rule="nonzero"/></clipPath><clipPath id="c505914044"><path d="M 0 210 L 960 210 L 960 504.863281 L 0 504.863281 Z M 0 210 " clip-rule="nonzero"/></clipPath><clipPath id="9490ae8449"><path d="M 472.945312 210 C 174.5 210 -67.441406 276.007812 -67.441406 357.433594 C -67.441406 438.855469 174.5 504.863281 472.945312 504.863281 C 771.394531 504.863281 1013.332031 438.855469 1013.332031 357.433594 C 1013.332031 276.007812 771.394531 210 472.945312 210 Z M 472.945312 210 " clip-rule="nonzero"/></clipPath></defs><g clip-path="url(#9369915e21)"><path fill="#ffeedd" d="M 41.171875 -229.398438 C 28.460938 -229.398438 16.269531 -224.347656 7.28125 -215.359375 C -1.707031 -206.371094 -6.757812 -194.179688 -6.757812 -181.46875 L -6.757812 301.578125 C -6.757812 314.289062 -1.707031 326.480469 7.28125 335.46875 C 16.269531 344.457031 28.460938 349.507812 41.171875 349.507812 C 331.386719 349.507812 621.605469 349.507812 911.820312 349.507812 C 938.289062 349.507812 959.75 328.046875 959.75 301.574219 L 959.75 -181.464844 C 959.75 -207.9375 938.289062 -229.394531 911.820312 -229.394531 L 476.496094 -229.398438 Z M 41.171875 -229.398438 " fill-opacity="1" fill-rule="nonzero"/></g><g clip-path="url(#c505914044)"><g clip-path="url(#9490ae8449)"><path fill="#ffeedd" d="M -67.441406 210 L 1012.960938 210 L 1012.960938 504.863281 L -67.441406 504.863281 Z M -67.441406 210 " fill-opacity="1" fill-rule="nonzero"/></g></g></svg>